# xmcd
#
# Track frame offsets: 
#        150
#        20741
#        39242
#        64821
#        80647
#        98507
#        115699
#        173154
#        204835
#        216955
#        245794
#        263153
#        282575
#        301801
#
# Disc length: 4350 seconds
#
# Revision: 0
# Processed by: cddbd v1.4PL0 Copyright (c) Steve Scherf et al.
# Submitted via: ExactAudioCopy v0.90b4
#
DISCID=c110fc0e
DTITLE=Butterfield Blues Band - Unicorn Coffee House, Boston  1966
DYEAR=1900
DGENRE=
TTITLE0=Look Over Yonders Wall
TTITLE1=Born In Chicago
TTITLE2=Love Her With A Feeling
TTITLE3=Walking Blues
TTITLE4=Don't Say No To Me
TTITLE5=One More Heartache
TTITLE6=Work Song
TTITLE7=Thank You Mr Poobah
TTITLE8=Serves You Right To Suffer
TTITLE9=Got A Mind To Give Up Living
TTITLE10=Walking By Myself
TTITLE11=Baby Please Come Home
TTITLE12=World Is In A Tangle
TTITLE13=Got My Mojo Working
EXTD=
EXTT0=
EXTT1=
EXTT2=
EXTT3=
EXTT4=
EXTT5=
EXTT6=
EXTT7=
EXTT8=
EXTT9=
EXTT10=
EXTT11=
EXTT12=
EXTT13=
PLAYORDER=
